# xmcd
#
# Track frame offsets:
#	150
#	16460
#	41397
#	63357
#	84312
#	106120
#	132941
#	165428
#	180335
#	200920
#
# Disc length: 3085 seconds
#
# Revision: 1
# Processed by: cddbd v1.5.2PL0 Copyright (c) Steve Scherf et al.
# Submitted via: dBpowerAMP V4.0
#
DISCID=760c0b0a
DTITLE=The Rogue Element - Rogue Rock
DYEAR=2006
DGENRE=Electronic
TTITLE0=Let me Breathe
TTITLE1=My Style
TTITLE2=Breaking Point
TTITLE3=Fused
TTITLE4=Sunrise Leaves me Blind
TTITLE5=Calm
TTITLE6=Backbreaker
TTITLE7=Stiletto
TTITLE8=Rogue Rock
TTITLE9=You Know That Sound
EXTD=
EXTT0=
EXTT1=
EXTT2=
EXTT3=
EXTT4=
EXTT5=
EXTT6=
EXTT7=
EXTT8=
EXTT9=
PLAYORDER=
